<svg width="100" height="100" viewBox="0 0 100 100" fill="none" xmlns="http://www.w3.org/2000/svg">
<path d="M12 0.5L88 0.5C94.3513 0.5 99.5 5.64873 99.5 12L99.5 88C99.5 94.3513 94.3513 99.5 88 99.5L12 99.5C5.64873 99.5 0.5 94.3513 0.5 88L0.5 12C0.5 5.64873 5.64873 0.5 12 0.5Z" fill="#A995C9"/>
<path d="M12 0.5L88 0.5C94.3513 0.5 99.5 5.64873 99.5 12L99.5 88C99.5 94.3513 94.3513 99.5 88 99.5L12 99.5C5.64873 99.5 0.5 94.3513 0.5 88L0.5 12C0.5 5.64873 5.64873 0.5 12 0.5Z" stroke="#A995C9"/>
<path d="M62.3821 32.1553L63.79 34.9943C63.9819 35.3895 64.4939 35.7686 64.9258 35.8411L67.4775 36.2686C69.1094 36.5428 69.4933 37.7365 68.3175 38.914L66.3337 40.9142C65.9977 41.2529 65.8137 41.9062 65.9177 42.374L66.4857 44.85C66.9336 46.8098 65.9017 47.568 64.1819 46.5437L61.7902 45.1162C61.3582 44.8581 60.6463 44.8581 60.2064 45.1162L57.8146 46.5437C56.1028 47.568 55.0629 46.8018 55.5109 44.85L56.0788 42.374C56.1828 41.9062 55.9988 41.2529 55.6629 40.9142L53.6791 38.914C52.5112 37.7365 52.8872 36.5428 54.519 36.2686L57.0707 35.8411C57.4946 35.7686 58.0066 35.3895 58.1986 34.9943L59.6064 32.1553C60.3743 30.6149 61.6222 30.6149 62.3821 32.1553Z" stroke="white" stroke-width="3" stroke-linecap="round" stroke-linejoin="round"/>
<path d="M31 49.6098C31 60.3187 39.6813 69 50.3902 69C59.2019 69 66.6408 63.1222 69 55.0735C66.1582 57.1381 62.6613 58.3558 58.8799 58.3558C49.3609 58.3558 41.6442 50.6391 41.6442 41.1201C41.6442 37.3387 42.8619 33.8418 44.9265 31C36.8778 33.3592 31 40.7981 31 49.6098Z" stroke="white" stroke-width="3" stroke-linejoin="round"/>
</svg>
